<svg width="82" height="43" viewBox="0 0 82 43" fill="none" xmlns="http://www.w3.org/2000/svg">
<path opacity="0.12" fill-rule="evenodd" clip-rule="evenodd" d="M78.5471 9.04264C72.5328 3.50835 62.0442 3.50835 56.0191 9.04264C52.1231 12.634 46.8923 14.6086 41.3049 14.6086C35.7175 14.6086 30.4867 12.634 26.5853 9.04264C23.5862 6.27549 19.5875 4.75379 15.3294 4.75379C11.0713 4.75379 7.07257 6.27549 4.06272 9.04264C3.18732 9.83973 1.71211 9.90313 0.761067 9.16945C-0.189981 8.44483 -0.260229 7.20392 0.609764 6.40683C4.51662 2.81543 9.74198 0.836304 15.324 0.836304C20.9168 0.836304 26.1422 2.81543 30.049 6.40683C33.0481 9.17398 37.0468 10.6957 41.3049 10.6957C45.563 10.6957 49.5617 9.17398 52.5716 6.40683C60.3745 -0.77145 74.1971 -0.77145 82 6.40683" fill="#4A90E2"/>
<path opacity="0.12" fill-rule="evenodd" clip-rule="evenodd" d="M78.5471 22.815C72.5328 17.2807 62.0442 17.2807 56.0191 22.815C52.1231 26.4064 46.8923 28.381 41.3049 28.381C35.7175 28.381 30.4867 26.4064 26.5853 22.815C23.5862 20.0478 19.5875 18.5261 15.3294 18.5261C11.0713 18.5261 7.07257 20.0478 4.06272 22.815C3.18732 23.6121 1.71211 23.6755 0.761067 22.9418C-0.189981 22.2172 -0.260229 20.9763 0.609764 20.1792C4.51662 16.5878 9.74198 14.6086 15.324 14.6086C20.9168 14.6086 26.1422 16.5878 30.049 20.1792C33.0481 22.9463 37.0468 24.468 41.3049 24.468C45.563 24.468 49.5617 22.9463 52.5716 20.1792C60.3745 13.0009 74.1971 13.0009 82 20.1792" fill="#4A90E2"/>
<path opacity="0.12" fill-rule="evenodd" clip-rule="evenodd" d="M78.5471 36.5873C72.5328 31.053 62.0442 31.053 56.0191 36.5873C52.1231 40.1787 46.8923 42.1533 41.3049 42.1533C35.7175 42.1533 30.4867 40.1787 26.5853 36.5873C23.5862 33.8202 19.5875 32.2985 15.3294 32.2985C11.0713 32.2985 7.07257 33.8202 4.06272 36.5873C3.18732 37.3844 1.71211 37.4478 0.761067 36.7141C-0.189981 35.9895 -0.260229 34.7486 0.609764 33.9515C4.51662 30.3601 9.74198 28.381 15.324 28.381C20.9168 28.381 26.1422 30.3601 30.049 33.9515C33.0481 36.7187 37.0468 38.2404 41.3049 38.2404C45.563 38.2404 49.5617 36.7187 52.5716 33.9515C60.3745 26.7732 74.1971 26.7732 82 33.9515" fill="#4A90E2"/>
</svg>
