<?xml version="1.0" encoding="UTF-8"?>
<svg width="411px" height="173px" viewBox="0 0 411 173" version="1.1" xmlns="http://www.w3.org/2000/svg" xmlns:xlink="http://www.w3.org/1999/xlink">
    <!-- Generator: Sketch 64 (93537) - https://sketch.com -->
    <title>Flyte-Icon-Half@2x</title>
    <desc>Created with Sketch.</desc>
    <defs>
        <polygon id="path-1" points="0.06 0.183 410.989 0.183 410.989 172.94 0.06 172.94"></polygon>
    </defs>
    <g id="Flyte-Icon-Half" stroke="none" stroke-width="1" fill="none" fill-rule="evenodd">
        <path d="M216.945,115.11 C216.945,121.428 211.823,126.55 205.504,126.55 C199.185,126.55 194.063,121.428 194.063,115.11 C194.063,108.791 199.185,103.669 205.504,103.669 C211.823,103.669 216.945,108.791 216.945,115.11" id="Fill-1" fill="#AED2E5"></path>
        <path d="M280.132,141.757 C276.407,141.757 273.378,138.727 273.378,135.002 C273.378,131.278 276.407,128.249 280.132,128.249 C283.857,128.249 286.887,131.278 286.887,135.002 C286.887,138.727 283.857,141.757 280.132,141.757 Z M207.123,157.596 C206.615,158.35 205.89,158.462 205.504,158.462 C205.117,158.462 204.393,158.35 203.884,157.596 C190.552,137.858 182.593,121.974 182.593,115.109 C182.593,102.477 192.87,92.199 205.504,92.199 C218.137,92.199 228.414,102.477 228.414,115.109 C228.414,121.974 220.455,137.857 207.123,157.596 Z M130.859,141.757 C127.134,141.757 124.104,138.727 124.104,135.002 C124.104,131.278 127.134,128.249 130.859,128.249 C134.583,128.249 137.614,131.278 137.614,135.002 C137.614,138.727 134.583,141.757 130.859,141.757 Z M357.646,105.195 C357.646,102.388 355.37,100.113 352.564,100.113 C349.757,100.113 347.482,102.388 347.482,105.195 L347.482,117.065 L238.471,117.065 C238.539,116.384 238.578,115.729 238.578,115.109 C238.578,112.183 238.193,109.347 237.476,106.643 L280.982,106.646 L280.982,94.779 C280.982,91.972 278.706,89.697 275.9,89.697 C273.093,89.697 270.818,91.972 270.818,94.779 L270.818,96.482 L232.815,96.48 C227.761,89.095 219.796,83.853 210.585,82.427 L210.585,53.829 C210.585,51.023 208.31,48.748 205.504,48.748 C202.698,48.748 200.422,51.023 200.422,53.829 L200.422,82.427 C191.211,83.853 183.246,89.095 178.193,96.48 L140.17,96.657 L140.17,94.978 C140.17,92.171 137.896,89.897 135.089,89.897 C132.282,89.897 130.007,92.171 130.007,94.978 L130.007,106.868 L173.527,106.665 C172.814,109.362 172.43,112.191 172.43,115.109 C172.43,115.699 172.464,116.349 172.54,117.065 L63.507,117.065 L63.507,105.195 C63.507,102.388 61.232,100.113 58.425,100.113 C55.618,100.113 53.344,102.388 53.344,105.195 L53.344,127.228 L115.849,127.228 C114.636,129.558 113.941,132.199 113.941,135.002 C113.941,144.332 121.53,151.921 130.859,151.921 C140.187,151.921 147.777,144.332 147.777,135.002 C147.777,132.199 147.08,129.558 145.868,127.228 L175.246,127.228 C178.287,135.211 184.276,146.723 195.462,163.286 C197.721,166.629 201.475,168.625 205.504,168.625 C209.532,168.625 213.286,166.629 215.545,163.286 C225.557,148.463 232.313,136.415 235.798,127.228 L265.123,127.228 C263.91,129.558 263.214,132.199 263.214,135.002 C263.214,144.332 270.804,151.921 280.132,151.921 C289.461,151.921 297.051,144.332 297.051,135.002 C297.051,132.199 296.355,129.558 295.143,127.228 L357.646,127.228 L357.646,105.195 L357.646,105.195 Z" id="Fill-2" fill="#314079"></path>
        <g id="Group-7">
            <mask id="mask-2" fill="white">
                <use xlink:href="#path-1"></use>
            </mask>
            <g id="Clip-4"></g>
            <path d="M96.347,108.058 C96.161,108.058 95.974,108.048 95.785,108.027 C92.995,107.721 90.983,105.21 91.289,102.421 C97.698,44.136 146.799,0.183 205.504,0.183 C264.209,0.183 313.31,44.136 319.718,102.421 C320.025,105.21 318.011,107.721 315.222,108.027 C312.423,108.343 309.921,106.321 309.615,103.531 C303.775,50.407 259.017,10.346 205.504,10.346 C151.99,10.346 107.233,50.407 101.392,103.531 C101.106,106.132 98.905,108.058 96.347,108.058" id="Fill-3" fill="#AED2E5" mask="url(#mask-2)"></path>
            <path d="M405.906,173 L247.612,173 C244.805,173 242.53,170.725 242.53,167.918 C242.53,165.112 244.805,162.836 247.612,162.836 L405.906,162.836 C408.713,162.836 410.989,165.112 410.989,167.918 C410.989,170.725 408.713,173 405.906,173" id="Fill-5" fill="#AED2E5" mask="url(#mask-2)"></path>
            <path d="M163.278,173 L5.081,173 C2.275,173 0,170.725 0,167.918 C0,165.112 2.275,162.836 5.081,162.836 L163.278,162.836 C166.084,162.836 168.359,165.112 168.359,167.918 C168.359,170.725 166.084,173 163.278,173" id="Fill-6" fill="#AED2E5" mask="url(#mask-2)"></path>
        </g>
        <path d="M380.478,152.658 L311.185,152.658 C308.378,152.658 306.103,150.382 306.103,147.576 C306.103,144.769 308.378,142.494 311.185,142.494 L380.478,142.494 C383.284,142.494 385.56,144.769 385.56,147.576 C385.56,150.382 383.284,152.658 380.478,152.658" id="Fill-8" fill="#AED2E5"></path>
        <path d="M99.704,152.658 L30.511,152.658 C27.704,152.658 25.429,150.382 25.429,147.576 C25.429,144.769 27.704,142.494 30.511,142.494 L99.704,142.494 C102.511,142.494 104.786,144.769 104.786,147.576 C104.786,150.382 102.511,152.658 99.704,152.658" id="Fill-9" fill="#AED2E5"></path>
    </g>
</svg>