<?xml version="1.0" encoding="UTF-8"?>
<svg width="390px" height="295px" viewBox="0 0 390 295" version="1.1" xmlns="http://www.w3.org/2000/svg" xmlns:xlink="http://www.w3.org/1999/xlink">
    <!-- Generator: Sketch 64 (93537) - https://sketch.com -->
    <title>Flyte-Icon-Circle@2x</title>
    <desc>Created with Sketch.</desc>
    <defs>
        <polygon id="path-1" points="0 0.584 389.888 0.584 389.888 294.94 0 294.94"></polygon>
    </defs>
    <g id="Page-1" stroke="none" stroke-width="1" fill="none" fill-rule="evenodd">
        <g id="Flyte-Icon-Circle">
            <mask id="mask-2" fill="white">
                <use xlink:href="#path-1"></use>
            </mask>
            <g id="Clip-2"></g>
            <path d="M209.614,147.792 C209.614,155.888 203.052,162.45 194.956,162.45 C186.861,162.45 180.298,155.888 180.298,147.792 C180.298,139.697 186.861,133.134 194.956,133.134 C203.052,133.134 209.614,139.697 209.614,147.792" id="Fill-1" fill="#AED2E5" mask="url(#mask-2)"></path>
            <path d="M290.575,181.935 C285.802,181.935 281.92,178.052 281.92,173.28 C281.92,168.509 285.802,164.626 290.575,164.626 C295.346,164.626 299.229,168.509 299.229,173.28 C299.229,178.052 295.346,181.935 290.575,181.935 Z M197.032,202.229 C196.38,203.193 195.452,203.338 194.956,203.338 C194.461,203.338 193.533,203.193 192.881,202.229 C175.8,176.939 165.602,156.589 165.602,147.792 C165.602,131.606 178.77,118.438 194.956,118.438 C211.142,118.438 224.311,131.606 224.311,147.792 C224.311,156.589 214.113,176.939 197.032,202.229 Z M99.316,181.935 C94.545,181.935 90.662,178.052 90.662,173.28 C90.662,168.509 94.545,164.626 99.316,164.626 C104.089,164.626 107.97,168.509 107.97,173.28 C107.97,178.052 104.089,181.935 99.316,181.935 Z M389.888,135.089 C389.888,131.493 386.973,128.578 383.378,128.578 C379.782,128.578 376.867,131.493 376.867,135.089 L376.867,150.298 L237.191,150.298 C237.288,149.381 237.333,148.547 237.333,147.792 C237.333,144.043 236.838,140.409 235.92,136.945 L291.662,136.948 L291.662,121.744 C291.662,118.148 288.747,115.232 285.151,115.232 C281.555,115.232 278.64,118.148 278.64,121.744 L278.64,123.926 L229.948,123.922 C223.473,114.46 213.268,107.744 201.468,105.917 L201.468,69.276 C201.468,65.68 198.552,62.765 194.956,62.765 C191.36,62.765 188.445,65.68 188.445,69.276 L188.445,105.917 C176.643,107.744 166.438,114.461 159.964,123.923 L111.248,124.15 L111.248,121.999 C111.248,118.403 108.333,115.487 104.737,115.487 C101.141,115.487 98.225,118.403 98.225,121.999 L98.225,137.233 L153.985,136.973 C153.072,140.428 152.58,144.053 152.58,147.792 C152.58,148.547 152.624,149.381 152.721,150.298 L13.022,150.298 L13.022,135.089 C13.022,131.493 10.107,128.578 6.511,128.578 C2.916,128.578 0,131.493 0,135.089 L0,163.319 L80.074,163.319 C78.522,166.304 77.639,169.69 77.639,173.28 C77.639,185.232 87.364,194.956 99.316,194.956 C111.269,194.956 120.993,185.232 120.993,173.28 C120.993,169.69 120.111,166.304 118.559,163.319 L156.189,163.319 C160.084,173.549 167.758,188.297 182.09,209.518 C184.984,213.802 189.794,216.359 194.956,216.359 C200.119,216.359 204.928,213.802 207.823,209.518 C222.156,188.297 229.829,173.549 233.723,163.319 L271.332,163.319 C269.78,166.304 268.898,169.69 268.898,173.28 C268.898,185.232 278.622,194.956 290.575,194.956 C302.527,194.956 312.251,185.232 312.251,173.28 C312.251,169.69 311.368,166.304 309.816,163.319 L389.888,163.319 L389.888,135.089 L389.888,135.089 Z" id="Fill-3" fill="#314079" mask="url(#mask-2)"></path>
            <path d="M55.116,138.76 C54.879,138.76 54.638,138.747 54.396,138.72 C50.822,138.327 48.243,135.111 48.636,131.537 C52.571,95.732 69.535,62.669 96.403,38.44 C123.473,14.028 158.473,0.584 194.956,0.584 C231.439,0.584 266.439,14.028 293.51,38.44 C320.378,62.669 337.342,95.732 341.276,131.537 C341.67,135.111 339.091,138.327 335.515,138.72 C331.943,139.114 328.725,136.534 328.333,132.959 C320.854,64.917 263.515,13.607 194.956,13.607 C126.397,13.607 69.057,64.917 61.58,132.959 C61.214,136.292 58.393,138.76 55.116,138.76" id="Fill-4" fill="#AED2E5" mask="url(#mask-2)"></path>
            <path d="M194.956,295 C161.579,295 128.895,283.513 102.924,262.654 C77.356,242.12 59.167,213.316 51.708,181.551 C50.886,178.05 53.056,174.546 56.557,173.724 C60.054,172.904 63.562,175.072 64.385,178.574 C71.182,207.523 87.765,233.778 111.078,252.502 C135.089,271.785 164.094,281.979 194.956,281.979 C225.819,281.979 254.823,271.785 278.834,252.502 C302.146,233.778 318.729,207.523 325.528,178.574 C326.351,175.074 329.859,172.903 333.355,173.724 C336.856,174.546 339.028,178.051 338.206,181.551 C330.745,213.317 312.555,242.12 286.988,262.654 C261.016,283.513 228.333,295 194.956,295" id="Fill-5" fill="#AED2E5" mask="url(#mask-2)"></path>
        </g>
    </g>
</svg>