<svg width="154" height="64" viewBox="0 0 154 64" fill="none" xmlns="http://www.w3.org/2000/svg">
<path d="M11.127 51V36.0234H26.6045V29.7217H11.127V19.5176H28.0811V12.9521H3.16406V51H11.127ZM57.4014 44.4082H40.7637V12.9521H32.8008V51H57.4014V44.4082ZM74.8301 51V36.7881L88.0928 12.9521H79.5498L71.0068 29.1943H70.8223L62.3057 12.9521H53.6309L66.8672 36.7881V51H74.8301ZM109.028 51V19.5176H120.05V12.9521H90.0703V19.5176H101.065V51H109.028Z" fill="#011F8E"/>
<rect x="124" y="13" width="30" height="6" fill="#9ECBF5"/>
<rect x="124" y="29" width="20" height="6" fill="#9ECBF5"/>
<rect x="124" y="45" width="30" height="6" fill="#9ECBF5"/>
</svg>
